<svg id="visual" viewBox="0 0 900 450" width="900" height="450" xmlns="http://www.w3.org/2000/svg" xmlns:xlink="http://www.w3.org/1999/xlink" version="1.1"><path d="M0 414L15 410.8C30 407.7 60 401.3 90 394.3C120 387.3 150 379.7 180 387.2C210 394.7 240 417.3 270 425C300 432.7 330 425.3 360 415.5C390 405.7 420 393.3 450 384C480 374.7 510 368.3 540 370.7C570 373 600 384 630 396.8C660 409.7 690 424.3 720 421C750 417.7 780 396.3 810 394.2C840 392 870 409 885 417.5L900 426L900 451L885 451C870 451 840 451 810 451C780 451 750 451 720 451C690 451 660 451 630 451C600 451 570 451 540 451C510 451 480 451 450 451C420 451 390 451 360 451C330 451 300 451 270 451C240 451 210 451 180 451C150 451 120 451 90 451C60 451 30 451 15 451L0 451Z" fill="#a27fd7" stroke-linecap="round" stroke-linejoin="miter"></path></svg>